<?xml version="1.0" standalone="no"?>
<!DOCTYPE svg PUBLIC "-//W3C//DTD SVG 20010904//EN"
 "http://www.w3.org/TR/2001/REC-SVG-20010904/DTD/svg10.dtd">
<svg version="1.0" xmlns="http://www.w3.org/2000/svg"
 width="1024.000000pt" height="1024.000000pt" viewBox="0 0 1024.000000 1024.000000"
 preserveAspectRatio="xMidYMid meet">

<g transform="translate(0.000000,1024.000000) scale(0.100000,-0.100000)"
fill="currentColor" stroke="none">
<path d="M5835 8255 c-379 -52 -707 -184 -1070 -432 -156 -107 -273 -204 -441
-366 -234 -225 -445 -467 -518 -593 -18 -29 -18 -32 2 -70 26 -51 116 -176
214 -296 49 -62 73 -98 63 -98 -9 0 -71 11 -138 25 -337 68 -651 50 -979 -55
-289 -92 -563 -242 -818 -447 -106 -85 -348 -319 -493 -478 -114 -124 -248
-296 -275 -352 l-15 -32 72 -96 c238 -317 569 -643 918 -904 297 -221 568
-341 928 -407 114 -21 361 -29 475 -15 249 30 494 95 629 167 36 18 65 33 66
31 10 -23 135 -180 185 -232 36 -38 99 -108 139 -155 185 -215 378 -386 599
-531 443 -291 900 -411 1369 -358 199 22 452 103 698 224 276 136 510 309 781
580 180 180 409 438 537 607 l29 37 -30 43 c-16 24 -60 77 -97 118 -37 41
-127 145 -199 230 -417 493 -824 814 -1176 928 -85 28 -288 78 -370 92 -100
16 -114 20 -104 30 5 4 74 38 152 74 177 80 273 136 422 244 307 225 511 436
782 812 146 203 188 271 178 289 -4 9 -41 55 -82 101 -40 47 -129 153 -198
235 -231 278 -434 463 -700 640 -322 214 -635 342 -980 400 -131 22 -428 28
-555 10z m430 -415 c137 -16 328 -57 445 -96 286 -95 616 -300 851 -528 109
-106 339 -354 339 -365 0 -14 -336 -375 -443 -477 -294 -281 -767 -487 -1203
-525 -368 -32 -773 55 -1143 247 -265 136 -541 370 -783 663 l-87 105 196 200
c225 232 294 294 418 381 326 227 650 350 1050 398 67 8 275 6 360 -3z m-2375
-1825 c378 -79 612 -168 842 -321 191 -127 416 -330 585 -527 l74 -87 -21 -28
c-56 -71 -262 -291 -366 -391 -80 -77 -158 -140 -250 -201 -302 -200 -595
-313 -917 -356 -166 -22 -440 -14 -582 16 -483 103 -942 409 -1384 922 -37 43
-39 35 43 137 159 196 370 393 556 516 289 192 553 298 850 341 151 21 415 12
570 -21z m2815 -1015 c61 -6 148 -17 195 -26 294 -54 746 -274 955 -465 68
-62 331 -329 429 -436 26 -29 46 -57 44 -62 -8 -23 -198 -238 -286 -323 -113
-109 -211 -186 -384 -298 -266 -175 -542 -291 -823 -347 -122 -24 -418 -24
-560 1 -374 64 -644 194 -1000 480 -169 136 -480 452 -480 488 0 6 41 45 92
87 50 42 156 134 235 205 276 249 531 439 693 517 186 89 438 162 620 178 131
12 149 12 270 1z"/>
<path d="M5913 7563 c-28 -4 -34 -10 -42 -41 -6 -20 -53 -208 -106 -417 -122
-482 -195 -761 -241 -917 -4 -13 9 -19 68 -32 40 -9 99 -20 130 -24 l57 -9 26
116 c15 64 31 133 36 154 l10 37 182 0 183 0 34 -161 34 -162 61 6 c34 3 93
13 132 22 l71 16 -9 37 c-5 20 -70 285 -144 587 -75 303 -147 597 -161 655
-14 58 -27 113 -30 123 -5 15 -19 17 -132 15 -70 0 -142 -3 -159 -5z m218
-702 c26 -119 29 -145 18 -152 -8 -5 -67 -9 -133 -9 -96 0 -117 3 -113 14 3 7
31 128 62 267 31 140 59 261 62 269 6 17 56 -169 104 -389z"/>
<path d="M6590 6843 c0 -657 1 -694 18 -689 9 3 53 14 97 25 264 67 496 185
580 295 61 80 72 187 30 273 -22 44 -50 71 -113 109 -2 1 19 24 46 51 109 105
92 245 -45 380 -99 99 -298 184 -546 237 l-67 14 0 -695z m403 341 c78 -51 98
-125 48 -175 -28 -28 -33 -29 -120 -29 l-91 0 0 139 0 140 62 -25 c34 -13 80
-36 101 -50z m26 -449 c67 -34 82 -109 34 -166 -23 -27 -190 -119 -217 -119
-3 0 -6 70 -6 156 l0 157 80 -6 c44 -4 93 -13 109 -22z"/>
<path d="M5475 7500 c-151 -32 -335 -97 -486 -173 l-144 -72 -3 -127 c-1 -71
1 -128 6 -128 4 0 64 29 132 65 69 35 131 65 138 65 9 0 12 -91 12 -424 l0
-424 38 -10 c63 -18 146 -40 175 -46 l27 -6 0 510 c0 280 2 510 4 510 18 0
215 44 229 51 15 8 17 25 17 119 l0 110 -27 -1 c-16 0 -68 -9 -118 -19z"/>
<path d="M3488 5803 l-36 -4 -171 -687 c-94 -378 -171 -697 -171 -709 0 -17 9
-23 48 -31 89 -19 203 -35 208 -29 3 3 20 72 38 154 l32 148 185 3 185 2 28
-142 c16 -79 31 -149 34 -157 4 -10 20 -12 71 -7 70 7 178 30 188 39 8 9 -42
229 -196 857 l-138 565 -134 1 c-74 0 -150 -1 -171 -3z m156 -398 c23 -94 106
-459 106 -470 0 -3 -58 -5 -130 -5 -71 0 -130 4 -130 9 0 4 17 86 39 182 21
96 49 223 61 282 13 59 24 106 26 105 1 -2 14 -48 28 -103z"/>
<path d="M4180 5628 l1 -133 146 -70 c80 -38 152 -75 160 -81 19 -13 9 -34
-172 -349 l-135 -234 0 -186 c0 -102 2 -185 5 -185 3 0 51 18 108 41 118 46
273 127 388 200 l79 51 0 117 0 118 -157 -78 c-87 -42 -159 -76 -161 -74 -1 1
63 114 144 251 81 137 153 264 161 282 8 20 13 58 11 95 l-3 62 -81 55 c-139
94 -367 212 -471 244 l-23 7 0 -133z"/>
<path d="M2585 5584 c-61 -36 -118 -73 -127 -81 -17 -15 -18 -48 -18 -417 l0
-401 43 -26 c70 -44 341 -177 445 -218 158 -63 140 -75 138 95 l-1 147 -88 27
c-48 15 -128 38 -177 51 l-90 24 0 432 c0 238 -4 433 -8 433 -4 0 -57 -30
-117 -66z"/>
<path d="M6335 4749 c-38 -5 -90 -12 -115 -17 l-45 -8 -3 -716 -2 -716 87 -16
c49 -9 105 -16 126 -16 l37 0 0 295 0 295 38 0 39 0 101 -285 c56 -157 102
-290 102 -295 0 -6 10 -10 23 -10 34 1 157 19 200 31 37 10 39 12 33 42 -3 18
-53 149 -111 291 -96 236 -104 261 -88 269 38 21 99 95 129 157 41 84 57 154
57 250 0 43 -6 102 -13 131 -29 125 -114 245 -204 289 -81 39 -222 49 -391 29z
m286 -306 c71 -60 87 -154 42 -244 -36 -70 -88 -99 -180 -99 l-63 0 0 185 0
185 84 0 c77 0 87 -2 117 -27z"/>
<path d="M7028 4020 c-2 -436 1 -710 6 -710 24 0 167 45 238 75 285 121 446
271 509 478 18 57 20 87 17 195 -4 139 -19 189 -89 310 -72 122 -208 216 -422
291 -75 26 -233 71 -251 71 -3 0 -7 -320 -8 -710z m370 336 c75 -40 142 -134
168 -236 44 -172 -35 -327 -222 -438 -38 -23 -72 -42 -75 -42 -2 0 -3 173 -1
385 l2 385 51 -20 c28 -11 63 -27 77 -34z"/>
<path d="M5680 4563 c-151 -65 -136 -43 -201 -280 -31 -114 -82 -299 -113
-411 -31 -111 -56 -204 -56 -206 0 -1 47 -35 105 -75 l104 -72 10 38 c5 21 12
53 16 71 4 17 10 32 13 32 4 -1 65 -13 137 -29 l130 -27 25 -110 c14 -60 29
-115 33 -121 6 -10 165 -53 196 -53 7 0 11 22 11 58 1 86 -287 1222 -309 1222
-9 0 -54 -17 -101 -37z m40 -543 c22 -95 39 -174 38 -176 -2 -1 -40 5 -86 13
-68 13 -82 18 -78 32 3 9 22 83 42 164 20 81 38 146 40 144 2 -2 22 -81 44
-177z"/>
</g>
</svg>
